<svg id="Layer_1" data-name="Layer 1" xmlns="http://www.w3.org/2000/svg" viewBox="0 0 1050 1100"><defs><style>.cls-1{fill:#4a0000;}.cls-1,.cls-2,.cls-4,.cls-5,.cls-6{fill-rule:evenodd;}.cls-2{fill:#1c1b1c;}.cls-3{fill:#fe0300;}.cls-4{fill:#cc0a0a;}.cls-5{fill:#fcfff9;}.cls-6{fill:#740100;}.cls-7{fill:#fff;}</style></defs><path class="cls-1" d="M88.74,174.2c41.15-23,88.25-43.46,132-60.59,94.93-37.15,197.24-65.08,299-73.56l5.26-.44,5.26.44c101.76,8.48,204.07,36.41,299,73.56,43.75,17.13,90.85,37.56,132,60.59l27.32,15.28,4.45,31c11.9,82.89-7.11,195.29-30.83,273.78-66.7,220.69-217,400.48-399.13,537.51L525,1060.39l-38.07-28.64C304.81,894.72,154.5,714.93,87.8,494.24,64.08,415.75,45.07,303.35,57,220.46l4.45-31Z"/><path class="cls-2" d="M97.25,216.75S36.14,642.16,525,1010c488.86-367.81,427.75-793.22,427.75-793.22S747.48,102,525,83.46C302.52,102,97.25,216.75,97.25,216.75"/><path class="cls-3" d="M525,1012.48a2.45,2.45,0,0,1-1.5-.51C411.77,927.91,319.71,833.81,249.87,732.28,194,651,152.09,564.84,125.41,476.15,112.3,432.58,96,364.75,92.84,289.07c-1.9-45.34,1.9-72.41,1.93-72.68A2.51,2.51,0,0,1,96,214.56c.51-.28,52.37-29.12,130.75-59.83,72.35-28.35,182.79-64.16,298-73.77h.42c115.22,9.61,225.66,45.42,298,73.77C901.6,185.44,953.46,214.28,954,214.56a2.51,2.51,0,0,1,1.26,1.83c0,.27,3.83,27.34,1.93,72.68-1.75,41.77-8.82,108.14-32.57,187.08C897.91,564.84,856,651,800.13,732.28,730.29,833.81,638.23,927.91,526.5,1012A2.45,2.45,0,0,1,525,1012.48ZM99.57,218.32c-.7,5.72-3.39,31.2-1.72,70.79,1.75,41.5,8.8,107.43,32.43,185.88,26.56,88.15,68.21,173.82,123.82,254.62C323.31,830.18,414.45,923.44,525,1006.85c110.55-83.41,201.69-176.67,270.9-277.24,55.61-80.8,97.27-166.47,123.82-254.62,13-43.3,29.26-110.69,32.43-185.88,1.68-39.59-1-65.07-1.71-70.79-7.88-4.3-57.31-30.84-129.13-59C749.33,131.15,639.52,95.54,525,86c-114.52,9.58-224.33,45.19-296.31,73.39C156.87,187.48,107.44,214,99.57,218.32Z"/><path class="cls-3" d="M525,1019.36a2.5,2.5,0,0,1-1.5-.5l-3.31-2.49C408,932,315.52,837.42,245.33,735.4,189.11,653.66,147,567,120.14,477.73c-23.91-79.48-31-146.34-32.79-188.43-1.92-45.76,1.82-72.57,2-73.69l.39-2.69A2.5,2.5,0,0,1,91,211.09l2.38-1.33c.51-.29,52.8-29.35,131.43-60.16,72.69-28.48,183.67-64.46,299.55-74.12l.46,0h.42l.45,0c115.89,9.66,226.87,45.64,299.56,74.12,78.67,30.83,130.92,59.87,131.44,60.16l2.37,1.33a2.51,2.51,0,0,1,1.26,1.83l.38,2.69c.16,1.12,3.9,27.93,2,73.69-1.77,42.09-8.88,109-32.8,188.43C903,567,860.89,653.66,804.67,735.4c-70.19,102-162.66,196.55-274.86,281l-3.31,2.49A2.5,2.5,0,0,1,525,1019.36ZM104.72,221.79c-2.21,21.5-9,119.43,30.92,251.94,26.42,87.57,67.85,172.68,123.13,253C326.92,825.67,416.49,917.61,525,1000c108.5-82.34,198.08-174.28,266.23-273.26,55.28-80.28,96.71-165.39,123.13-253,23.5-77.89,30.53-143.36,32.29-184.56,1.46-34.36-.35-57.78-1.36-67.38-14.31-7.69-60.6-31.71-126.08-57.36-71.49-28-180.54-63.37-294.21-72.95-113.67,9.58-222.72,45-294.2,73C165.33,190.07,119,214.1,104.72,221.79Z"/><path class="cls-3" d="M525,77.94l.46,0c115.58,9.64,226.31,45.54,298.85,74,78.57,30.79,130.61,59.73,131.13,60l2.37,1.33.39,2.69c.16,1.11,3.87,27.62,2,73.23-1.76,41.95-8.85,108.59-32.69,187.82-26.78,89-68.79,175.45-124.86,257-70,101.8-162.32,196.14-274.3,280.39l-3.31,2.49-3.31-2.49c-112-84.25-204.27-178.59-274.3-280.39-56.07-81.52-98.08-168-124.86-257C98.7,397.78,91.6,331.14,89.84,289.19c-1.91-45.61,1.81-72.12,2-73.23l.39-2.69,2.37-1.33c.52-.28,52.56-29.22,131.13-60C298.23,123.51,409,87.61,524.54,78l.46,0m0,925.14c109.41-82.8,199.66-175.29,268.29-275,55.43-80.5,97-165.84,123.46-253.66,23.57-78.14,30.63-143.83,32.39-185.17,1.57-36.7-.63-61.24-1.5-69.06-11.09-6-59.14-31.33-127.52-58.12C748.4,134,639,98.55,525,89,411,98.55,301.6,134,229.88,162.1c-68.37,26.78-116.42,52.12-127.51,58.11-1.91,17.45-10.26,117.86,30.88,254.24,26.49,87.82,68,173.16,123.46,253.66,68.63,99.68,158.88,192.17,268.29,275M102.69,217.53h0M525,72.94h-.42l-.45,0c-116.19,9.69-227.42,45.74-300.27,74.29-78.75,30.86-131.21,60-131.73,60.3l-2.38,1.33a5,5,0,0,0-2.51,3.65l-.39,2.69c-.16,1.13-3.93,28.18-2,74.15,1.77,42.24,8.91,109.32,32.9,189.05,26.92,89.49,69.15,176.42,125.52,258.36,70.34,102.25,163,197,275.42,281.56l3.3,2.48a5,5,0,0,0,6,0l3.3-2.48c112.42-84.59,205.08-179.31,275.42-281.56,56.37-81.94,98.6-168.87,125.52-258.36,24-79.73,31.14-146.81,32.9-189,1.93-46-1.84-73-2-74.14l-.39-2.7a5,5,0,0,0-2.51-3.65l-2.37-1.33c-.53-.29-53-29.44-131.74-60.3C753.29,118.73,642.06,82.68,525.87,73l-.45,0ZM107.07,223.36c15.51-8.28,61-31.67,124.64-56.6C303,138.84,411.71,103.57,525,94c113.29,9.58,222,44.85,293.3,72.77C882,191.7,927.44,215.09,942.94,223.37c1,10.25,2.61,33,1.21,65.69-1.75,41.06-8.76,106.3-32.19,184-26.34,87.32-67.65,172.19-122.79,252.26C721.48,823.58,632.62,914.92,525,996.81,417.38,914.92,328.52,823.58,260.83,725.27,205.69,645.2,164.38,560.33,138,473c-39.08-129.54-33.28-225.82-31-249.65Z"/><path class="cls-3" d="M449.34,407.36c-31.76-16.15-114.42-69.8-28.33-157.93,0,0-47,83.86,44.08,124.58a18.48,18.48,0,0,1,4.44,31.12h0A18.46,18.46,0,0,1,449.34,407.36Z"/><path class="cls-3" d="M580.24,405.13h0A18.48,18.48,0,0,1,584.67,374c91-40.72,44.08-124.58,44.08-124.58,86.1,88.13,3.43,141.78-28.33,157.93A18.44,18.44,0,0,1,580.24,405.13Z"/><path class="cls-2" d="M525,842.37l59.41-50.57c11.07-9.42,23-25.34,30.5-37.53,19-30.79,28.25-65.3,25.11-101.54L639,640.43c-21.24-27.95-52.49-51.67-80.87-69.53L525,550.07,491.91,570.9c-28.38,17.86-59.62,41.58-80.86,69.53L410,652.73c-3.14,36.24,6.14,70.75,25.11,101.54,7.51,12.19,19.44,28.11,30.5,37.53ZM717.83,577.11c14.79,39.88,22.85,82.69,17.31,124.62-2.12,16-12.59,35.8-21.66,48.71-25.68,36.52-65.39,61.94-106,78.92L541.9,856.75l32.57,27.73L525,863.81l-49.47,20.67,32.57-27.73-65.56-27.39c-40.63-17-80.34-42.4-106-78.92-9.08-12.91-19.55-32.67-21.67-48.71-5.54-41.93,2.53-84.74,17.31-124.62l.68-30.24c1.67-74.76,33.53-138.23,89.14-186.58H628c55.61,48.35,87.47,111.82,89.14,186.58Z"/><path class="cls-4" d="M525,522.2c-62.9,4.89-114.17,53.36-114.17,53.36C440.19,560.18,480,552,480,552,363.07,625.65,366.33,690,366.33,690c4.19-20.5,21.43-39.14,21.43-39.14-8.39,96.92,63.37,158,63.37,158C346.29,765,337,698.81,337,698.81,322.06,586,419.33,468.19,419.33,468.19c-42.06,29.86-64.19,79.17-64.19,79.17C358.87,380.55,525,324.17,525,324.17Z"/><path class="cls-4" d="M525,940.34V829.67c-79.55-39.61-110.68-97.31-110.68-97.31s29.36,65,82.94,106.94c0,0-119-17.71-173.1-125.35,13.62,97.14,68.4,135.28,124.91,163C475.64,890,525,910.8,525,940.34"/><path class="cls-1" d="M413,424.93c19.91-30.32,54.77-59.84,112-69.93V324.17s-48,16.28-92.93,57.22a244.41,244.41,0,0,0-46.79,57.2c-17.19,29.41-29.16,65.35-30.14,108.77,2.69-61.69,40.85-133.62,92.31-167.8,0,0-25.06,22.39-34.48,45.37"/><path class="cls-1" d="M499.43,472.7c-84.76,20.16-108.58,60.94-108.58,60.94,25.2-58.19,50-82.14,50-82.14-15.36,10.09-21.57,16.69-21.57,16.69S322.06,586,337,698.81c0,0,9.32,66.17,114.16,110,0,0-71.76-61-63.37-158,0,0-17.24,18.64-21.43,39.14,0,0-3.26-64.3,113.7-137.92-48.73,12-104.76,64.53-104.76,64.53C428.67,494,499.43,472.7,499.43,472.7"/><path class="cls-5" d="M525,511.08c-73.72,5.5-114.17,64.48-114.17,64.48S462.1,527.09,525,522.2Z"/><path class="cls-1" d="M483.19,878c-31.24-19.42-72.07-34.68-99.59-66.45,5.27,11.22,18.33,24.51,18.33,24.51-49-36.54-65.4-85.58-77.77-122.07q1.77,12.62,4.43,23.92c18.68,79.74,68.86,113.75,120.48,139.06C475.64,890,525,910.8,525,940.34V905.2c-10.54-18.18-22.29-27-27.13-30.06-1.44-.91-2.26-1.32-2.26-1.32.51.52,1,1.07,1.52,1.64,11,12.48,17.72,33.87,17.72,33.87-6.31-12.19-16.39-21.42-28.52-29.36-1-.68-2.08-1.35-3.14-2"/><path class="cls-1" d="M514.35,850.8a114,114,0,0,1-17.09-11.5s-119-17.71-173.1-125.35c25,52.44,61.34,84.87,95.6,104.9a254.06,254.06,0,0,0,53.87,23.5,240.9,240.9,0,0,0,24.26,6h0L525,863.81Z"/><path class="cls-4" d="M518.05,836.45C447,798.71,414.32,732.36,414.32,732.36s29.36,65,82.94,106.94a114,114,0,0,0,17.09,11.5l10.65,13V840q-3.54-1.71-7-3.53"/><path class="cls-4" d="M525,522.2c62.9,4.89,114.17,53.36,114.17,53.36C609.82,560.18,570,552,570,552,686.94,625.65,683.67,690,683.67,690c-4.19-20.5-21.43-39.14-21.43-39.14,8.39,96.92-63.37,158-63.37,158C703.71,765,713,698.81,713,698.81,727.94,586,630.67,468.19,630.67,468.19c42.06,29.86,64.19,79.17,64.19,79.17C691.13,380.55,525,324.17,525,324.17Z"/><path class="cls-4" d="M525,940.34V829.67c79.55-39.61,110.68-97.31,110.68-97.31s-29.35,65-82.94,106.94c0,0,119-17.71,173.11-125.35-13.63,97.14-68.4,135.28-124.92,163C574.36,890,525,910.8,525,940.34"/><path class="cls-1" d="M550.57,472.7c84.76,20.16,108.58,60.94,108.58,60.94-25.2-58.19-50-82.14-50-82.14,15.36,10.09,21.57,16.69,21.57,16.69S727.94,586,713,698.81c0,0-9.32,66.17-114.16,110,0,0,71.76-61,63.37-158,0,0,17.24,18.64,21.43,39.14,0,0,3.27-64.3-113.69-137.92,48.72,12,104.75,64.53,104.75,64.53C621.33,494,550.57,472.7,550.57,472.7"/><path class="cls-5" d="M525,511.08c73.72,5.5,114.17,64.48,114.17,64.48S587.9,527.09,525,522.2Z"/><path class="cls-4" d="M532,836.45c71.09-37.74,103.72-104.09,103.72-104.09s-29.35,65-82.94,106.94a114,114,0,0,1-17.09,11.5l-10.65,13V840q3.54-1.71,7-3.53"/><path class="cls-1" d="M535.65,850.8a114,114,0,0,0,17.09-11.5s119-17.71,173.11-125.35c-25,52.44-61.35,84.87-95.61,104.9a253.84,253.84,0,0,1-53.87,23.5,240.8,240.8,0,0,1-24.25,6h0L525,863.81Z"/><path class="cls-5" d="M525,840V829.67a296.44,296.44,0,0,1-68.83-47.13c-29.36-27-41.85-50.18-41.85-50.18S447,798.71,518.05,836.45q3.41,1.81,7,3.53"/><path class="cls-5" d="M593.83,782.54A296.44,296.44,0,0,1,525,829.67V840q3.54-1.71,7-3.53c71.09-37.74,103.72-104.09,103.72-104.09s-12.49,23.15-41.85,50.18"/><path class="cls-5" d="M458.42,627.39c14.94,4.54,31.58,8.07,46.52,12.61,7.88,2.4-5.29,6.7-14.25,9-18.34,4.6-30.22-6.72-40.47-21-2-2.73,6.07-1.19,8.2-.55"/><path class="cls-4" d="M429.59,667s6.78,42.27,27.19,61.34S525,768.14,525,768.14V665.61l-27,7.8s-49.25-13.53-66.58-27.17a125.47,125.47,0,0,0,9.86,44.87c-5.05-6.85-10.12-16.56-11.72-24.11"/><path class="cls-6" d="M525,747c-53.32-12.83-68.53-36.08-68.53-36.08,13.63,12,32.07,13.63,32.07,13.63s-22.68-7.1-37.11-27-20-51.27-20-51.27a125.47,125.47,0,0,0,9.86,44.87c-5.05-6.85-10.12-16.56-11.72-24.11,0,0,6.78,42.27,27.19,61.34S525,768.14,525,768.14Z"/><path class="cls-5" d="M591.58,627.39c-14.93,4.54-31.58,8.07-46.52,12.61-7.88,2.4,5.3,6.7,14.25,9,18.34,4.6,30.22-6.72,40.47-21,2-2.73-6.07-1.19-8.2-.55"/><path class="cls-4" d="M620.41,667s-6.78,42.27-27.18,61.34S525,768.14,525,768.14V665.61l27,7.8s49.25-13.53,66.57-27.17a125.58,125.58,0,0,1-9.85,44.87c5-6.85,10.11-16.56,11.71-24.11"/><path class="cls-6" d="M525,747c53.33-12.83,68.53-36.08,68.53-36.08-13.62,12-32.07,13.63-32.07,13.63s22.68-7.1,37.11-27,20-51.27,20-51.27a125.58,125.58,0,0,1-9.85,44.87c5-6.85,10.11-16.56,11.71-24.11,0,0-6.78,42.27-27.18,61.34S525,768.14,525,768.14Z"/><path class="cls-5" d="M525,665.61l-27,7.8s-49.25-13.53-66.58-27.17c0,0,19.61,18.79,59,29.32a228.09,228.09,0,0,1-23.14,2.07S497,682.32,525,672.24Z"/><path class="cls-5" d="M525,665.61l27,7.8s49.25-13.53,66.57-27.17c0,0-19.61,18.79-59,29.32a228.44,228.44,0,0,0,23.14,2.07S553,682.32,525,672.24Z"/><path class="cls-4" d="M598.87,808.78s80.57-52.35,84.8-118.83c-4.19-20.5-21.43-39.14-21.43-39.14,8.39,96.92-63.37,158-63.37,158"/><path class="cls-4" d="M451.13,808.78S370.56,756.43,366.33,690c4.19-20.5,21.43-39.14,21.43-39.14-8.39,96.92,63.37,158,63.37,158"/><path class="cls-1" d="M566.81,878c31.25-19.42,72.08-34.68,99.59-66.45C661.14,822.73,648.08,836,648.08,836c49-36.54,65.4-85.58,77.77-122.07q-1.77,12.62-4.44,23.92c-18.68,79.74-68.85,113.75-120.48,139.06C574.37,890,525,910.8,525,940.34V905.2c10.54-18.18,22.29-27,27.13-30.06,1.44-.91,2.27-1.32,2.27-1.32-.52.52-1,1.07-1.53,1.64-11,12.48-17.72,33.87-17.72,33.87,6.31-12.19,16.4-21.42,28.52-29.36,1-.68,2.08-1.35,3.14-2"/><path class="cls-1" d="M637,424.93c-19.92-30.32-54.78-59.84-112-69.93V324.17s48,16.28,92.93,57.22a244.69,244.69,0,0,1,46.8,57.2c17.18,29.41,29.16,65.35,30.13,108.77-2.69-61.69-40.85-133.62-92.3-167.8,0,0,25.05,22.39,34.48,45.37"/><path class="cls-7" d="M163.1,307,178,321a6,6,0,0,1,1.25,7.35,6,6,0,0,1,7.41.78L204,345.35l-7.76,8.27-16.27-15.28a1.55,1.55,0,0,0-2.55.08L162.73,354l17.58,16.51-7.76,8.26-45.92-43.12,26.24-27.95C155.71,304.72,160.34,304.39,163.1,307Zm-5.91,12.47-14.66,15.61L154.6,346.4l14.66-15.62a1.54,1.54,0,0,0-.08-2.54l-9.58-9A1.72,1.72,0,0,0,157.19,319.45Z"/><path class="cls-7" d="M187.08,291.16l9.46,11.33,17.82-14.89,7.16,8.57-17.83,14.88,9.47,11.33,26.52-22.15,7.15,8.56L211.6,338.22l-40.38-48.36,35.23-29.42L213.6,269Z"/><path class="cls-7" d="M261.72,231.37l27.21,40.92c2.09,3.15,1,7.66-2.46,9.95l-31.92,21.23L219.66,251l31.93-21.23C255,227.5,259.63,228.23,261.72,231.37Zm-8.6,10.8L235.29,254l22.52,33.87L275.64,276a1.72,1.72,0,0,0,.61-2.34l-20.73-31.18A1.72,1.72,0,0,0,253.12,242.17Z"/><path class="cls-7" d="M342,197.56l-15.85,6.89L346.79,252l-10.4,4.52L315.73,209l-15.85,6.88-4.45-10.23,42.1-18.3Z"/><path class="cls-7" d="M364.2,190.06l4.33,14.12,22.2-6.82L394,208l-22.2,6.81L376.13,229l33-10.14,3.28,10.67L368.57,243l-18.49-60.23L394,169.26l3.28,10.67Z"/><path class="cls-7" d="M452,206.94l-20.91,3.71L428.81,226l-12,2.13,10.7-65.88,11.17-2,32.72,58.17-12,2.12Zm-5.67-10.33-10.27-18.74L432.87,199Z"/><path class="cls-7" d="M537,215.45l-11.33.43-1.77-46.41L512,205.23l-10.88.41-14.56-34.76,1.76,46.42-11.33.43-2.39-63,16.82-.64L506,190.32l11.74-37.2,16.82-.64Z"/><path class="cls-7" d="M632,163.61l-31.38,58.91-11.21-1.73-12.2-65.62,12,1.85,8.36,48L620,161.76Z"/><path class="cls-7" d="M643.85,166.92l11,2.69-14.93,61.21-11-2.69Z"/><path class="cls-7" d="M698.25,237.3l-3.52,10.59-43.47-14.45,19.88-59.78,10.76,3.57-16.36,49.19Z"/><path class="cls-7" d="M746.78,259.56l-4.69,10.13-41.58-19.24L727,193.27,737.27,198l-21.78,47Z"/><path class="cls-7" d="M784.06,277.9,766,266.76l-12,10-10.34-6.37,51.8-42.09,9.66,5.95-14.25,65.2-10.35-6.37Zm2.64-11.49,4.79-20.83-16.44,13.66Z"/><path class="cls-7" d="M866.62,288.16l-6.92,8.64-8.85-7.09,3.26-4.07a1.7,1.7,0,0,0-.39-2.39l-15.45-12.39a1.73,1.73,0,0,0-2.42.14l-23.41,29.22a1.72,1.72,0,0,0,.39,2.39L828.29,315a1.7,1.7,0,0,0,2.41-.14l8.22-10.25-9.13-7.32,7-8.71,18,14.41L835.9,326.51c-2.37,2.95-7,3.27-10.24.68L801.5,307.83c-3.23-2.59-3.93-7.18-1.57-10.13l30.73-38.35c2.36-3,7-3.27,10.23-.68L865.06,278C868.29,280.61,869,285.21,866.62,288.16Z"/><path class="cls-7" d="M884.28,310.86l-10.56,10.32L890,337.79l-8,7.8L865.74,329l-10.56,10.32L879.33,364l-8,7.8L839.27,339l45.07-44,32.07,32.84-8,7.79Z"/></svg>